# xmcd
#
# Track frame offsets: 
#        150
#        20348
#        36815
#        50929
#        69072
#        86544
#        106859
#        123705
#        140778
#        156687
#
# Disc length: 2316 seconds
#
# Revision: 0
# Processed by: cddbd v1.5.1PL2 Copyright (c) Steve Scherf et al.
# Submitted via: ExactAudioCopy v0.95b2
#
DISCID=8d090a0a
DTITLE=Various Artist - Billboard Top Country May 1999
DYEAR=1999
DGENRE=Country
TTITLE0=Tim McGraw - Please Remember Me
TTITLE1=George Strait - Write This Down
TTITLE2=Kenny Chesney - How Forever Feels
TTITLE3=Mark Wills - Wish You Were Here
TTITLE4=Shania Twain - Man I Feel Like A Woman
TTITLE5=Steve Wariner - Two Teardrops
TTITLE6=Alan Jackson - Gone Crazy
TTITLE7=Collin Raye - Anyone Else
TTITLE8=Andy Griggs - You Won't Ever Be Lonely
TTITLE9=Ty Herndon - Hands Of A Working Man
EXTD=
EXTT0=
EXTT1=
EXTT2=
EXTT3=
EXTT4=
EXTT5=
EXTT6=
EXTT7=
EXTT8=
EXTT9=
PLAYORDER=
